<?xml version="1.0" encoding="UTF-8"?>
<svg version="1.1" viewBox="0 0 1600 1066" width="612" height="408" xmlns="http://www.w3.org/2000/svg">
<path transform="translate(794,115)" d="m0 0 5 1 18 10 19 13 16 13 8 8 6 5 9 11 8 10 10 15 11 22 9 27 4 18 2 20v21l-3 22-6 22-8 19-10 18-10 15-4 5 11-6 11-8 10-8 11-10 14-16 11-15 6-10 8-20 4-16 1-8v-24l-3-16-5-15-1-4 5 3 12 11 16 16 11 15 11 18 9 17 9 24 6 21 4 21 1 8v35l-3 19-8 24-9 17-10 14-12 14-14 12-18 12-15 8-20 8-26 7-6-9-9-16-16-24-13-19-10-15-11-18-12-22-12-25-10-25-13 35-16 33-14 26-15 24-13 20-11 18-18-8-21-14-13-12-10-11-9-14-7-15-4-16-1-7v-26l3-16 6-18 12-23 11-15 12-14 14-14 8-7 13-11 17-14 14-12 10-9 8-8 7-8 11-14 10-16 6-13 4-14 2-13v-16l-4-21-6-17-5-8z" fill="#ED4623"/>
<path transform="translate(919,626)" d="m0 0 22 3 19 5 19 8 14 9 11 9 7 7 10 14 7 15 4 14 2 16v15l-2 15-5 19-10 21-7 10-8 7-21 14-18 10-25 12-22 8-30 8-28 5-18 2-15 1h-26l-25-2-24-4-8-2 2-4 14-13 9-11 11-15 10-16 12-23 8-21 6-21 3-18 1-1 14-2 16-5 19-9 14-10 11-10 10-14 8-15 6-18z" fill="#2787EE"/>
<path transform="translate(660,321)" d="m0 0h2l-2 4-10 14-10 18-7 16-5 17-2 12-1 11v14l3 21 5 17 8 18 6 10 10 14 12 13 12 10 15 10 22 11-10 30-3 14-1 7-1 23-6 2-29 6-48 12-28 5-8 1h-32l-18-3-13-5-12-7-3-4-4-27-1-14v-24l2-23 4-24 7-26 10-26 9-19 14-24 13-18 8-10 11-13 22-22 11-9 17-13 19-12 11-6z" fill="#9D27A4"/>
<path transform="translate(701,636)" d="m0 0 4 1 3 11 6 15 6 10 7 9 14 14 15 10 17 8 16 5 14 3 1 3-6 24-8 24-7 16-11 20-10 15-14 17-14 15-6 5-10-2-17-5-24-10-23-11-20-12-14-10-10-8-13-11-16-15-12-13-11-14-13-18-12-21-10-21-7-19-5-18v-3l9 3 13 4 20 3h31l25-3 24-5 37-10z" fill="#445CF2"/>
<path transform="translate(1063,400)" d="m0 0 6 5 12 17 9 16 8 17 8 21 6 20 6 26 3 19 2 28v18l-2 29-5 29-6 23-10 27-10 21-13 22-8 11-11 14-12 13-9 9-1-3 4-13 4-21 1-9v-17l-4-22-6-17-6-11-7-9-10-11-14-11-16-9-22-8-19-4-21-2-1-1-3-23-5-18-3-9 27-7 19-7 19-9 21-13 11-9 10-9 7-7 11-14 10-15 8-16 6-16 4-19 1-7z" fill="#96CF26"/>
<path transform="translate(956,234)" d="m0 0 5 3 12 11 16 16 11 15 11 18 9 17 9 24 6 21 4 21 1 8v35l-3 19-8 24-9 17-10 14-12 14-14 12-18 12-15 8-20 8-26 7-6-9-9-16-16-24-13-19-10-15-11-18-5-9v-2l6-3 7-6 2-3h2l2-4 3-1v-2l8-7 6-6h2l1-3h2l2-4 2 1-1 2 16-10 14-11 12-11 14-16 11-15 6-10 8-20 4-16 1-8v-24l-3-16-5-15z" fill="#FAAA29"/>
<path transform="translate(1134,631)" d="m0 0 2 1-1 17-5 27-8 28-10 25-10 20-12 20-10 14-8 10-11 13-21 21-11 9-10 8-24 16-16 9-17 9-27 11-30 9-27 6-30 4-13 1h-51l-28-3-26-5-26-7-28-10-29-14-20-11-19-13-14-11-10-9-8-7-18-18-11-14-14-19-11-19-8-16-9-21-9-28-5-24-2-19v-7h2l5 9 5 26 10 29 12 25 13 22 13 18 13 16 12 13 13 13 11 9 13 10 16 11 20 12 15 8 23 10 25 9 28 7 28 5 17 2h55l26-3 31-6 25-7 24-9 24-11 25-14 16-11 17-13 11-9 15-14 12-13 11-14 12-16 9-15 12-23 10-25 7-23 6-25z" fill="#445CF2"/>
<path transform="translate(905,231)" d="m0 0h2l6 19 4 18 2 20v21l-3 22-6 22-8 19-10 18-10 15-5 4-4 5-8 7-6 6h-2v2l-7 6-5 5-7 6-5-1-14-28-13-32-13 35-16 33-14 26-15 24-4 5 1-6 3-9 8-7 1-5 2-2 6-11 3-6 1-3h2l1-5 9-17 2-3 2-8h2v-6l6-18 1-5 2-6 2-1 3-8 4-2 3-4 4-7 5-6 6-5h2l1-3 5-4 5-9 5-3 3-1 2-5 5-6 7-3h2l1-3h2l8-16 4-4 3-4 2-2-3-3 4-4h3v2h-2l1 2h2l1-5 1-3-1-4 1-1-1-4-3-1v-10l1-8 7-1 4 1 1-3 3-1 1 4 2-1 3-13 1-4z" fill="#EC5520"/>
<path transform="translate(659,593)" d="m0 0 17 1 9 2h6l3 3 4-1 1-2 4-1v30l-6 2-29 6-48 12-28 5-8 1h-32l-18-3-13-5-12-7-3-4-1-7v-14h2l1-2 4 2 6-1 10-7 15-5 39 1h13l29-2 4-1 19-1z" fill="#8C28BE"/>
<path transform="translate(660,321)" d="m0 0h2l-2 4-10 14-10 18-7 16-5 17-2 12-1 11v14l3 21 1 5-7 1-3-3-7 6-5 1-5-2-1-2h-8l-8 2-1 2-4 1v1h-8l-2 5-3 3h-3l-2 5-9 4-11 3-5 2-5 5-6-1-2-3-5-2 6-15 8-17 14-24 13-18 8-10 11-13 22-22 11-9 17-13 19-12 11-6z" fill="#C42B82"/>
<path transform="translate(718,304)" d="m0 0 1 2h-2l-1 4-2 4h-2v3h-2v3h-2l-2 4-4 4v3l-4 7h-2l-3 9-2 10-3 8 4-1-1 4h-3l2 6v9l2 1-5 13-2 9-2 5 1 4 1 3-4 12v4h2v10l-1 4v18l2 6-3 9 4 12 2 4 2 10 5 9 2 3-1 3h-6l-13-11-10-10-10-14-8-15-5-16-2-12v-26l3-16 6-18 12-23 11-15 12-14 14-14 8-7 4-3z" fill="#EF3D2D"/>
<path transform="translate(1134,631)" d="m0 0 2 1-1 17-5 27-8 28-10 25-10 20-12 20-10 14-8 10-11 13-21 21-11 9-10 8-24 16-16 9-17 9-27 11-26 8-3-1 3-3-2-1 2-2h3v-2l-5-1-5-2-7-1-5-2v-2l27-7 25-9 26-12 25-14 16-11 17-13 11-9 15-14 12-13 11-14 12-16 9-15 12-23 10-25 7-23 6-25z" fill="#2888EC"/>
<path transform="translate(621,411)" d="m0 0h2l1 3 2 23 3 16-7 1-3-3-7 6-5 1-5-2-1-2h-8l-8 2-1 2-4 1v1h-8l-2 5-3 3h-3l-2 5-9 4-11 3-5 2-5 5-6-1-2-3-5-2 6-15 8-17 12-20 5-2-2 7v8l7-2 4-3 6-1v-2h2l1-3 9-3 4-3 5-2 2-3h9l5-2h5v-2l3-2 10-2z" fill="#B62A91"/>
<path transform="translate(489,634)" d="m0 0h2l5 9 5 26 10 29 12 25 10 17 1 8-2 2-1 2-3-1v-2h-2v5l-3-3-8-16-8-18-11-33-5-24-2-19z" fill="#8B2CBD"/>
<path transform="translate(844,856)" d="m0 0 9 2 4 2 11 1 2 3-5 5-25 3-15 1h-19v-3l1-2v-3l11-2 9-1 8-3z" fill="#435EF2"/>
<path transform="translate(807,126)" d="m0 0h5l4 6v2h2l2 4 4 3v4l-4 1-2 2-3-4v-2h-2l-1-4-6-2-1-5 2-1z" fill="#EF3C2E"/>
<path transform="translate(657,488)" d="m0 0 4 2 6 8 4 3 4 1v2l3 2 2 1v3l2 2v3l-4-2-12-12-9-12z" fill="#ED5123"/>
<path transform="translate(710,532)" d="m0 0 12 1 3 2v5l-2 1-11-5z" fill="#EF462B"/>
<path transform="translate(757,485)" d="m0 0 1 2-12 19-2 2 1-6 3-9 8-7z" fill="#ED5C20"/>
<path transform="translate(747,858)" d="m0 0h2l2 6-2 2-7-1 2-4z" fill="#4260F2"/>
<path transform="translate(659,367)" d="m0 0 2 4 2 2h-2l-1 2-5 2-1 4-2-1z" fill="#ED4C23"/>
</svg>
